<?xml version="1.0" encoding="UTF-8"?>
<svg xmlns="http://www.w3.org/2000/svg" id="Layer_1" data-name="Layer 1" viewBox="0 0 24 24">
  <path d="m20.713,2.465c-.678-.299-1.426-.465-2.213-.465s-1.535.167-2.213.465l-3.287-2.465v7.5c0,3.033,2.467,5.5,5.5,5.5s5.5-2.467,5.5-5.5V0l-3.287,2.465Zm1.287,19.535h2v2h-6v-2c0-3.309-2.691-6-6-6v2c2.206,0,4,1.794,4,4v2H6.558c-3.224,0-6.558-2.058-6.558-5.5,0-2.135.945-3.659,1.779-5.004.655-1.056,1.221-1.969,1.221-2.996,0-1.298-.363-2.5-3-2.5v-2c4.351,0,5,2.819,5,4.5,0,1.597-.773,2.844-1.521,4.051-.76,1.226-1.479,2.384-1.479,3.949,0,1.791,1.467,2.851,2.997,3.279.007-1.299.364-7.986,6.719-11.077,1.201,2.541,3.787,4.299,6.784,4.299,1.264,0,2.455-.313,3.5-.866v7.866Z"/>
</svg>
